<?xml version="1.0" encoding="UTF-8" standalone="no"?>
<svg xmlns:dc="http://purl.org/dc/elements/1.1/" xmlns:cc="http://creativecommons.org/ns#" xmlns:rdf="http://www.w3.org/1999/02/22-rdf-syntax-ns#" xmlns:svg="http://www.w3.org/2000/svg" xmlns="http://www.w3.org/2000/svg" xmlns:sodipodi="http://sodipodi.sourceforge.net/DTD/sodipodi-0.dtd" xmlns:inkscape="http://www.inkscape.org/namespaces/inkscape" version="1.1" x="0px" y="0px" viewBox="0 0 100 125" inkscape:version="0.91 r13725" sodipodi:docname="noun_59852_cc.svg">
  
  <defs/>
  <sodipodi:namedview pagecolor="#ffffff" bordercolor="#666666" borderopacity="1" objecttolerance="10" gridtolerance="10" guidetolerance="10" inkscape:pageopacity="0" inkscape:pageshadow="2" inkscape:window-width="640" inkscape:window-height="480" showgrid="false" inkscape:zoom="1.888" inkscape:cx="50" inkscape:cy="62.5" inkscape:window-x="0" inkscape:window-y="0" inkscape:window-maximized="0" inkscape:current-layer="svg2"/>
  <g transform="translate(0,-952.36218)">
    <path style="" d="M 32.125 5.90625 C 28.425484 5.90625 25.4375 8.6292714 25.4375 12 L 25.4375 88.5 C 25.4375 91.870729 28.425484 94.59375 32.125 94.59375 L 67.375 94.59375 C 71.074516 94.59375 74.0625 91.870729 74.0625 88.5 L 74.0625 12 C 74.0625 8.6292714 71.074516 5.90625 67.375 5.90625 L 32.125 5.90625 z M 63.96875 8.21875 C 64.659106 8.21875 65.21875 8.7783941 65.21875 9.46875 C 65.21875 10.159106 64.659106 10.71875 63.96875 10.71875 C 63.278394 10.71875 62.71875 10.159106 62.71875 9.46875 C 62.71875 8.7783941 63.278394 8.21875 63.96875 8.21875 z M 45.53125 8.875 L 53.96875 8.875 C 54.168398 8.875 54.34375 9.0563309 54.34375 9.28125 C 54.34375 9.5061691 54.168398 9.6875 53.96875 9.6875 L 45.53125 9.6875 C 45.331602 9.6875 45.15625 9.5061691 45.15625 9.28125 C 45.15625 9.0563309 45.331602 8.875 45.53125 8.875 z M 32.15625 9.3125 C 32.384314 9.3125 32.5625 9.490686 32.5625 9.71875 C 32.5625 9.946814 32.384314 10.15625 32.15625 10.15625 C 31.928186 10.15625 31.75 9.946814 31.75 9.71875 C 31.75 9.490686 31.928186 9.3125 32.15625 9.3125 z M 33.59375 9.34375 C 33.809486 9.34375 34 9.5030138 34 9.71875 C 34 9.9344862 33.809486 10.125 33.59375 10.125 C 33.378014 10.125 33.21875 9.9344862 33.21875 9.71875 C 33.21875 9.5030138 33.378014 9.34375 33.59375 9.34375 z M 27.65625 13.4375 L 71.84375 13.4375 L 71.84375 85.21875 L 27.65625 85.21875 L 27.65625 13.4375 z M 44.40625 88.3125 L 55.09375 88.3125 C 55.833653 88.3125 56.4375 88.783078 56.4375 89.375 L 56.4375 90.59375 C 56.4375 91.185672 55.833653 91.65625 55.09375 91.65625 L 44.40625 91.65625 C 43.666347 91.65625 43.0625 91.185672 43.0625 90.59375 L 43.0625 89.375 C 43.0625 88.783078 43.666347 88.3125 44.40625 88.3125 z " transform="translate(0,952.36218)" fill="#000000"/>
  </g>

	<metadata>
		<rdf:RDF xmlns:rdf="http://www.w3.org/1999/02/22-rdf-syntax-ns#" xmlns:rdfs="http://www.w3.org/2000/01/rdf-schema#" xmlns:dc="http://purl.org/dc/elements/1.1/">
			<rdf:Description about="https://iconscout.com/legal#licenses" dc:title="smartphone android mobile device" dc:description="smartphone android mobile device" dc:publisher="Iconscout" dc:date="2016-11-20" dc:format="image/svg+xml" dc:language="en">
				<dc:creator>
					<rdf:Bag>
						<rdf:li>Rahul Kalkani</rdf:li>
					</rdf:Bag>
				</dc:creator>
			</rdf:Description>
		</rdf:RDF>
    </metadata></svg>
